<svg width="17" height="17" viewBox="0 0 17 17" fill="none" xmlns="http://www.w3.org/2000/svg">
<path d="M8.50016 6.12498C7.87027 6.12498 7.26618 6.3752 6.82078 6.8206C6.37539 7.266 6.12516 7.87009 6.12516 8.49998C6.12516 9.12987 6.37539 9.73396 6.82078 10.1794C7.26618 10.6248 7.87027 10.875 8.50016 10.875C9.13005 10.875 9.73414 10.6248 10.1795 10.1794C10.6249 9.73396 10.8752 9.12987 10.8752 8.49998C10.8752 7.87009 10.6249 7.266 10.1795 6.8206C9.73414 6.3752 9.13005 6.12498 8.50016 6.12498ZM8.50016 4.54165C9.54998 4.54165 10.5568 4.95868 11.2991 5.70102C12.0415 6.44335 12.4585 7.45017 12.4585 8.49998C12.4585 9.5498 12.0415 10.5566 11.2991 11.2989C10.5568 12.0413 9.54998 12.4583 8.50016 12.4583C7.45035 12.4583 6.44353 12.0413 5.7012 11.2989C4.95887 10.5566 4.54183 9.5498 4.54183 8.49998C4.54183 7.45017 4.95887 6.44335 5.7012 5.70102C6.44353 4.95868 7.45035 4.54165 8.50016 4.54165ZM13.646 4.34373C13.646 4.60618 13.5417 4.85789 13.3562 5.04347C13.1706 5.22905 12.9189 5.33331 12.6564 5.33331C12.394 5.33331 12.1423 5.22905 11.9567 5.04347C11.7711 4.85789 11.6668 4.60618 11.6668 4.34373C11.6668 4.08128 11.7711 3.82957 11.9567 3.64399C12.1423 3.45841 12.394 3.35415 12.6564 3.35415C12.9189 3.35415 13.1706 3.45841 13.3562 3.64399C13.5417 3.82957 13.646 4.08128 13.646 4.34373ZM8.50016 2.16665C6.54158 2.16665 6.22175 2.17219 5.31054 2.21256C4.68987 2.24185 4.27345 2.32498 3.88712 2.4754C3.54354 2.6084 3.29575 2.76752 3.03212 3.03194C2.78434 3.27134 2.59382 3.56361 2.47479 3.88694C2.32437 4.27485 2.24125 4.69048 2.21275 5.31036C2.17158 6.18436 2.16683 6.48994 2.16683 8.49998C2.16683 10.4586 2.17237 10.7784 2.21275 11.6896C2.24204 12.3095 2.32516 12.7267 2.47479 13.1122C2.60937 13.4566 2.7677 13.7044 3.03054 13.9672C3.29733 14.2332 3.54512 14.3924 3.88554 14.5238C4.27662 14.675 4.69304 14.7589 5.31054 14.7874C6.18454 14.8286 6.49012 14.8333 8.50016 14.8333C10.4587 14.8333 10.7786 14.8278 11.6898 14.7874C12.3089 14.7581 12.7261 14.675 13.1124 14.5254C13.4552 14.3916 13.7046 14.2324 13.9674 13.9696C14.2342 13.7028 14.3933 13.455 14.5247 13.1146C14.6752 12.7243 14.7591 12.3071 14.7876 11.6896C14.8287 10.8156 14.8335 10.51 14.8335 8.49998C14.8335 6.5414 14.828 6.22156 14.7876 5.31036C14.7583 4.69127 14.6752 4.27327 14.5247 3.88694C14.4054 3.56394 14.2153 3.27178 13.9682 3.03194C13.7289 2.78402 13.4366 2.59349 13.1132 2.4746C12.7253 2.32419 12.3089 2.24106 11.6898 2.21256C10.8158 2.1714 10.5102 2.16665 8.50016 2.16665ZM8.50016 0.583313C10.6511 0.583313 10.9195 0.59123 11.7634 0.630813C12.6065 0.670396 13.1805 0.802605 13.6856 0.998938C14.2081 1.20002 14.6482 1.47235 15.0884 1.91173C15.491 2.30748 15.8025 2.7862 16.0012 3.31456C16.1967 3.81885 16.3297 4.3936 16.3693 5.23673C16.4065 6.08065 16.4168 6.34902 16.4168 8.49998C16.4168 10.6509 16.4089 10.9193 16.3693 11.7632C16.3297 12.6064 16.1967 13.1803 16.0012 13.6854C15.803 14.2141 15.4915 14.6929 15.0884 15.0882C14.6926 15.4907 14.2139 15.8021 13.6856 16.001C13.1813 16.1966 12.6065 16.3296 11.7634 16.3691C10.9195 16.4064 10.6511 16.4166 8.50016 16.4166C6.34921 16.4166 6.08083 16.4087 5.23691 16.3691C4.39379 16.3296 3.81983 16.1966 3.31475 16.001C2.78617 15.8027 2.30737 15.4911 1.91191 15.0882C1.50928 14.6925 1.19778 14.2138 0.999121 13.6854C0.802788 13.1811 0.670579 12.6064 0.630996 11.7632C0.593788 10.9193 0.583496 10.6509 0.583496 8.49998C0.583496 6.34902 0.591413 6.08065 0.630996 5.23673C0.670579 4.39281 0.802788 3.81965 0.999121 3.31456C1.19722 2.78587 1.5088 2.30703 1.91191 1.91173C2.30749 1.50895 2.78625 1.19743 3.31475 0.998938C3.81983 0.802605 4.393 0.670396 5.23691 0.630813C6.08083 0.593605 6.34921 0.583313 8.50016 0.583313Z" fill="#E0BEA2"/>
</svg>
