<svg width="17" height="17" viewBox="0 0 17 17" fill="none" xmlns="http://www.w3.org/2000/svg">
<path d="M8.49968 14.8334C10.1794 14.8334 11.7903 14.1661 12.978 12.9784C14.1657 11.7907 14.833 10.1797 14.833 8.50004C14.833 6.82034 14.1657 5.20943 12.978 4.0217C11.7903 2.83397 10.1794 2.16671 8.49968 2.16671C6.81997 2.16671 5.20906 2.83397 4.02133 4.0217C2.8336 5.20943 2.16634 6.82034 2.16634 8.50004C2.16634 10.1797 2.8336 11.7907 4.02133 12.9784C5.20906 14.1661 6.81997 14.8334 8.49968 14.8334ZM8.49968 16.4167C4.1273 16.4167 0.583008 12.8724 0.583008 8.50004C0.583008 4.12767 4.1273 0.583374 8.49968 0.583374C12.8721 0.583374 16.4163 4.12767 16.4163 8.50004C16.4163 12.8724 12.8721 16.4167 8.49968 16.4167ZM6.03759 9.42629L4.06001 8.80958C3.63251 8.67896 3.63013 8.38446 4.1558 8.17308L11.8611 5.19642C12.3084 5.01433 12.5617 5.24471 12.4168 5.82183L11.1051 12.0127C11.0132 12.4536 10.748 12.5589 10.3799 12.3555L8.36034 10.8608L7.41905 11.7696C7.32247 11.863 7.24409 11.943 7.09526 11.9628C6.94722 11.9834 6.8253 11.939 6.73584 11.6936L6.04709 9.42075L6.03759 9.42629Z" fill="#E0BEA2"/>
</svg>
